<svg xmlns="http://www.w3.org/2000/svg" viewBox="0 0 200 200" fill="none">
  <circle cx="100" cy="100" r="95" fill="#1e293b"/>
  <path d="M50 60 L50 140 L70 140 L70 105 L95 140 L120 140 L88 100 L120 60 L95 60 L70 95 L70 60 Z" fill="#7c3aed" opacity="0.9"/>
  <path d="M115 75 L135 75 L135 80 L120 80 L120 135 L115 135 Z M140 85 C140 80 144 75 150 75 C156 75 160 80 160 85 L160 95 C160 100 156 105 150 105 C144 105 140 100 140 95 Z M145 85 L145 95 C145 97 147 100 150 100 C153 100 155 97 155 95 L155 85 C155 83 153 80 150 80 C147 80 145 83 145 85 Z" fill="#3b82f6" opacity="0.9"/>
  <path d="M90 100 L105 100 L100 95 M105 100 L100 105" stroke="#ec4899" stroke-width="3" stroke-linecap="round" opacity="0.7"/>
</svg>
